<svg width="636" height="406" viewBox="0 0 636 406" fill="none" xmlns="http://www.w3.org/2000/svg">
<path fill-rule="evenodd" clip-rule="evenodd" d="M558.065 0.117014C558.145 0.0289243 558.264 -0.0134908 558.382 0.00379883L609.263 7.45137C609.546 7.49274 609.665 7.83622 609.476 8.05027C545.581 80.3671 509.507 132.616 513.933 192.831C518.171 250.482 561.548 303.915 633.078 368.164L636 377.358L618.663 405.062C618.557 405.232 618.329 405.281 618.16 405.171C582.402 381.894 558.077 361.863 517.613 314.731L470.647 239.774L449.762 259.568L494.779 319.599L459.068 336.256C455.398 330.173 452.122 324.648 449.109 319.57C438.2 301.176 430.756 288.626 420.652 276.55C412.34 286.098 406.599 289.237 396.803 294.595C396.531 294.743 396.257 294.894 395.979 295.046C398.692 299.385 398.612 300.982 398.519 302.827C398.483 303.557 398.444 304.327 398.576 305.321C396.801 311.403 402.343 325.982 408.677 342.646L408.678 342.651C410.455 347.325 412.294 352.163 414.051 357.023L394.76 365.637C388.61 368.383 381.528 364.543 380.479 357.892L370.873 296.993C358.69 303.194 350.584 303.726 335.919 303.807C335.393 333.266 333.614 350.52 330.135 378.224C329.793 380.953 327.496 383.022 324.745 383.074L300.357 383.542C295.003 383.644 290.886 378.839 291.74 373.555C295.476 350.452 297.186 334.099 299.572 311.287L299.575 311.263C299.914 308.02 300.267 304.646 300.641 301.103C289.318 303.249 281.394 302.837 268.069 301.103L246.209 370.976L207.035 361.133C221.648 332.822 229.131 316.98 238.959 288.88C226.395 289.397 219.409 286.297 207.035 278.28L179.657 350.425L137.669 334.633L174.176 271.308C176.825 266.714 176.518 260.794 172.606 257.213C170.734 255.5 168.685 253.919 166.117 252.207C163.805 250.665 160.64 251.858 159.496 254.389C146.477 283.199 87.3409 363.595 69.6021 372.815C62.6341 379.27 55.7846 383.146 50.3113 386.244C48.1898 387.444 46.2751 388.528 44.6404 389.599C44.0048 390.016 43.369 390.445 42.7303 390.875C39.7349 392.894 36.6755 394.957 33.2737 396.022C27.2631 397.903 24.0985 399.337 20.0879 401.548C19.935 401.633 19.743 401.596 19.6331 401.46L0.079589 377.349C-0.0201768 377.226 -0.0265007 377.05 0.0626009 376.919C6.874 366.909 12.8302 361.235 26.5325 351.182C98.0046 289.57 117.311 247.87 119.273 210.678C105.651 149.842 67.2967 86.7389 17.3731 52.536C17.2915 52.4801 17.2722 52.3672 17.3275 52.2852C21.6327 45.9072 22.9614 42.8624 22.9614 35.8864L20.1478 28.4231L47.9349 6.33275C48.0735 6.2226 48.2716 6.22962 48.4021 6.34922C50.7314 8.4845 52.862 10.4085 54.8201 12.1767C65.3801 21.7128 70.9217 26.7171 75.554 35.8864C90.2941 49.554 98.1655 57.5034 103.46 64.3424C107.236 69.2202 112.735 72.6838 118.902 72.8982C120.576 72.9564 122.256 72.6813 123.827 72.1005C166.012 56.5059 194.283 48.5057 260.818 40.2129C271.856 37.0762 327.587 36.8498 343.386 39.5639C404.562 50.0732 436.174 57.971 491.749 72.6619L558.065 0.117014ZM472.102 125.954C472.049 122.453 469.966 119.282 466.797 117.79C437.472 103.988 412.158 96.1139 368.276 85.966C330.397 78.9261 296.646 81.495 256.381 85.8578C201.3 96.1333 175.653 103.272 146.218 119.28C146.21 119.697 146.202 120.103 146.194 120.5C146.071 126.514 145.995 130.238 148.274 135.397L150.501 136.494C153.701 138.072 154.926 141.902 155.047 145.466C155.249 151.383 159.161 156.356 164.831 157.57C167.658 151.008 178.789 147.476 191.862 143.327C194.305 142.552 196.815 141.755 199.352 140.913C228.354 131.286 270.558 117.682 322.176 118.631C363.344 119.389 382.592 120.127 390.46 123.607C415.707 130.33 430.349 137.777 447.681 146.591C452.762 149.175 458.074 151.877 463.952 154.712C464.008 154.739 464.076 154.729 464.121 154.686C465.824 153.052 466.948 150.889 467.161 148.539C467.508 144.706 467.47 141.682 467.282 137.593C467.232 136.517 468.088 135.613 469.166 135.613C470.346 135.613 471.377 134.791 471.575 133.628C472.058 130.804 472.14 128.512 472.102 125.954ZM456.471 177.256C438.153 175.738 416.171 172.639 392.791 168.689C387.8 167.846 383.238 171.966 382.989 177.019C382.772 181.392 382.309 185.763 381.911 189.478V189.888C381.911 208.62 375.074 229.887 359.648 240.525C350.104 247.106 340.182 248.309 328.589 248.506C320.033 248.65 313.086 248.349 301.832 247.778C300.528 247.473 299.268 247.181 298.044 246.892C281.7 243.044 269.746 231.593 263.006 216.222C262.601 215.299 262.188 214.369 261.772 213.432C257.891 204.69 253.752 195.37 253.755 185.967C253.756 180.988 254.103 176.03 254.758 169.684H236.145L183.656 186.217C176.396 188.503 173.6 197.209 178.626 202.922C198.607 225.633 236.189 259.018 279.297 262.849C282.243 263.111 285.159 263.715 287.893 264.844L296.854 268.546C317.288 269.527 328.751 269.436 349.23 266.166C359.859 264.75 366.225 262.149 377.799 256.54L383.61 250.871C385.705 248.827 388.176 247.248 390.708 245.779C409.124 235.099 446.228 198.536 456.471 177.256Z" fill="#857075"/>
</svg>
