<svg width="47" height="36" viewBox="0 0 47 36" fill="none" xmlns="http://www.w3.org/2000/svg">
<path fill-rule="evenodd" clip-rule="evenodd" d="M41.2406 0.00852733C41.2466 0.00210784 41.2554 -0.000983133 41.2641 0.000276838L45.0241 0.543015C45.045 0.54603 45.0539 0.57106 45.0399 0.586659C40.3181 5.85671 37.6522 9.6643 37.9794 14.0525C38.2925 18.2538 41.498 22.1477 46.7841 26.8298L47 27.4998L45.7188 29.5187C45.7109 29.5311 45.6941 29.5346 45.6816 29.5266C43.0391 27.8303 41.2415 26.3706 38.2513 22.9359L34.7805 17.4734L33.2371 18.9159L36.5639 23.2906L33.9249 24.5045C33.6537 24.0612 33.4115 23.6586 33.1889 23.2885C32.3827 21.9481 31.8326 21.0335 31.0859 20.1534C30.4717 20.8492 30.0474 21.078 29.3235 21.4685C29.3034 21.4793 29.2831 21.4902 29.2626 21.5013C29.4631 21.8175 29.4572 21.9339 29.4503 22.0683C29.4476 22.1216 29.4448 22.1777 29.4545 22.2501C29.3234 22.6933 29.7329 23.7558 30.201 24.9702L30.2011 24.9705C30.3324 25.3111 30.4682 25.6637 30.5981 26.0179L29.1725 26.6456C28.718 26.8457 28.1947 26.5659 28.1172 26.0812L27.4073 21.6432C26.5069 22.0951 25.9079 22.1339 24.8242 22.1398C24.7854 24.2866 24.6539 25.544 24.3968 27.5629C24.3715 27.7617 24.2017 27.9125 23.9985 27.9163L22.1962 27.9504C21.8005 27.9579 21.4963 27.6077 21.5594 27.2227C21.8355 25.539 21.9619 24.3473 22.1382 22.6849L22.1384 22.6831C22.1635 22.4468 22.1895 22.2009 22.2172 21.9427C21.3804 22.0991 20.7949 22.0691 19.8101 21.9427L18.1947 27.0347L15.2998 26.3174C16.3797 24.2542 16.9327 23.0998 17.6589 21.052C16.7305 21.0897 16.2142 20.8638 15.2998 20.2795L13.2765 25.5371L10.1737 24.3862L12.8715 19.7714C13.0672 19.4366 13.0446 19.0052 12.7555 18.7443C12.6172 18.6194 12.4657 18.5042 12.276 18.3795C12.1051 18.2671 11.8712 18.354 11.7867 18.5385C10.8245 20.638 6.45444 26.4968 5.14355 27.1687C4.62862 27.6391 4.12245 27.9216 3.71798 28.1473C3.5612 28.2348 3.4197 28.3138 3.2989 28.3919C3.25193 28.4222 3.20494 28.4535 3.15774 28.4848C2.93639 28.632 2.71029 28.7823 2.4589 28.8599C2.01473 28.997 1.78087 29.1015 1.48448 29.2626C1.47319 29.2688 1.459 29.2661 1.45087 29.2562L0.00588158 27.4991C-0.00149105 27.4901 -0.00195838 27.4773 0.00462617 27.4678C0.507984 26.7383 0.948141 26.3248 1.96074 25.5922C7.24248 21.1023 8.66919 18.0634 8.81419 15.3531C7.80755 10.9197 4.97319 6.32106 1.28386 3.82854C1.27783 3.82446 1.2764 3.81623 1.28049 3.81025C1.59864 3.34546 1.69683 3.12358 1.69683 2.6152L1.48891 2.07132L3.54236 0.461496C3.5526 0.453469 3.56724 0.45398 3.57688 0.462696C3.74902 0.618304 3.90647 0.758516 4.05117 0.887373C4.83155 1.58231 5.24107 1.94699 5.58339 2.6152C6.67268 3.61122 7.25437 4.19053 7.64562 4.68892C7.92467 5.04439 8.33103 5.2968 8.78676 5.31242C8.91047 5.31666 9.03462 5.29661 9.15072 5.25429C12.2682 4.11784 14.3574 3.53483 19.2743 2.9305C20.09 2.70191 24.2085 2.68541 25.376 2.8832C29.8969 3.64906 32.233 4.22461 36.34 5.2952L41.2406 0.00852733ZM34.888 9.17885C34.8841 8.92369 34.7302 8.6926 34.496 8.58389C32.3289 7.57811 30.4582 7.00425 27.2153 6.26473C24.4162 5.7517 21.9219 5.93891 18.9464 6.25685C14.8759 7.00567 12.9806 7.5259 10.8054 8.69249C10.8049 8.72288 10.8043 8.75248 10.8037 8.78135C10.7946 9.21962 10.789 9.49106 10.9574 9.86696L11.1219 9.94694C11.3584 10.0619 11.4489 10.341 11.4579 10.6008C11.4728 11.032 11.7619 11.3943 12.1809 11.4828C12.3898 11.0047 13.2124 10.7472 14.1785 10.4449C14.359 10.3884 14.5445 10.3303 14.732 10.269C16.8752 9.56743 19.994 8.57598 23.8086 8.6452C26.8509 8.7004 28.2733 8.75419 28.8547 9.00778C30.7205 9.49773 31.8025 10.0404 33.0833 10.6828C33.4588 10.8711 33.8514 11.068 34.2858 11.2746C34.2899 11.2766 34.2949 11.2758 34.2982 11.2727C34.4241 11.1536 34.5072 10.996 34.5229 10.8247C34.5485 10.5454 34.5457 10.325 34.5318 10.027C34.5282 9.94859 34.5914 9.88273 34.6711 9.88273C34.7583 9.88273 34.8344 9.82283 34.8491 9.73806C34.8848 9.53226 34.8909 9.36526 34.888 9.17885ZM33.7329 12.9174C32.3792 12.8068 30.7548 12.581 29.027 12.2931C28.6582 12.2317 28.3211 12.5319 28.3026 12.9001C28.2866 13.2189 28.2524 13.5374 28.223 13.8081V13.838C28.223 15.2031 27.7177 16.7529 26.5777 17.5281C25.8725 18.0077 25.1392 18.0954 24.2825 18.1097C23.6503 18.1203 23.1369 18.0983 22.3052 18.0567C22.2088 18.0345 22.1157 18.0132 22.0252 17.9922C20.8174 17.7117 19.934 16.8773 19.436 15.7571C19.4061 15.6898 19.3755 15.622 19.3448 15.5538C19.058 14.9167 18.7521 14.2375 18.7523 13.5523C18.7524 13.1894 18.778 12.8281 18.8265 12.3657H17.451L13.5721 13.5704C13.0356 13.7371 12.8289 14.3715 13.2004 14.7879C14.6769 16.4429 17.4542 18.8758 20.6399 19.155C20.8576 19.1741 21.0731 19.2181 21.2751 19.3004L21.9373 19.5701C23.4474 19.6416 24.2945 19.635 25.8079 19.3967C26.5933 19.2935 27.0638 19.1039 27.9191 18.6952L28.3485 18.2821C28.5034 18.1332 28.6859 18.0181 28.8731 17.911C30.234 17.1327 32.976 14.4682 33.7329 12.9174Z" fill="white"/>
<path d="M6.83782 35.1365C7.03683 35.1365 7.20339 35.0821 7.3375 34.9734C7.47378 34.8647 7.54191 34.7303 7.54191 34.5704C7.54191 34.4425 7.49757 34.3338 7.40888 34.2442C7.32236 34.1547 7.20771 34.0747 7.06495 34.0044C6.92218 33.9319 6.76752 33.8615 6.60096 33.7933C6.43657 33.7251 6.27109 33.6515 6.10453 33.5726C5.94013 33.4916 5.78872 33.3967 5.65028 33.288C5.51184 33.1793 5.40044 33.0481 5.31608 32.8946C5.23172 32.7411 5.18954 32.5567 5.18954 32.3413C5.18954 32.0748 5.25768 31.8424 5.39395 31.6442C5.53023 31.4437 5.72166 31.2881 5.96825 31.1772C6.21485 31.0664 6.50146 31.0109 6.82809 31.0109C7.3494 31.0109 7.84907 31.1389 8.32712 31.3947L7.91829 32.2134C7.70631 32.0812 7.50406 31.9917 7.31154 31.9448C7.11903 31.8979 6.95896 31.8744 6.83133 31.8744C6.63882 31.8744 6.48416 31.9149 6.36735 31.9959C6.2527 32.0748 6.19538 32.1804 6.19538 32.3126C6.19538 32.4256 6.23648 32.5226 6.31868 32.6036C6.40088 32.6846 6.50903 32.7571 6.64314 32.8211C6.77942 32.885 6.92759 32.9501 7.08766 33.0162C7.25422 33.0844 7.42294 33.159 7.59383 33.24C7.76471 33.321 7.92262 33.418 8.06755 33.531C8.21247 33.644 8.3282 33.7805 8.41473 33.9404C8.50341 34.1003 8.54776 34.2933 8.54776 34.5193C8.54776 34.8071 8.47313 35.063 8.32387 35.2868C8.17462 35.5086 7.96913 35.6834 7.70739 35.8113C7.44565 35.9371 7.14498 36 6.80538 36C6.49173 36 6.17699 35.9456 5.86118 35.8369C5.54537 35.726 5.25659 35.5704 4.99486 35.37L5.46209 34.5896C5.58322 34.6941 5.72274 34.7879 5.88065 34.8711C6.03856 34.9542 6.20079 35.0192 6.36735 35.0662C6.53607 35.1131 6.69289 35.1365 6.83782 35.1365Z" fill="white"/>
<path d="M9.8824 33.5055C9.8824 33.1451 9.94513 32.8136 10.0706 32.5108C10.1961 32.206 10.3723 31.9416 10.5995 31.7177C10.8266 31.4938 11.0937 31.3201 11.4009 31.1964C11.7102 31.0728 12.0477 31.0109 12.4132 31.0109C12.7788 31.0109 13.1152 31.0728 13.4223 31.1964C13.7316 31.3201 13.9999 31.4938 14.227 31.7177C14.4541 31.9416 14.6304 32.206 14.7559 32.5108C14.8813 32.8136 14.9441 33.1451 14.9441 33.5055C14.9441 33.8658 14.8813 34.1984 14.7559 34.5033C14.6304 34.806 14.4541 35.0693 14.227 35.2932C13.9999 35.5171 13.7316 35.6908 13.4223 35.8145C13.1152 35.9382 12.7788 36 12.4132 36C12.0477 36 11.7102 35.9382 11.4009 35.8145C11.0937 35.6908 10.8266 35.5171 10.5995 35.2932C10.3723 35.0693 10.1961 34.806 10.0706 34.5033C9.94513 34.1984 9.8824 33.8658 9.8824 33.5055ZM10.8882 33.5055C10.8882 33.8189 10.9542 34.0982 11.0862 34.3434C11.2181 34.5886 11.3987 34.7826 11.628 34.9254C11.8573 35.0662 12.119 35.1365 12.4132 35.1365C12.7074 35.1365 12.9691 35.0662 13.1984 34.9254C13.4277 34.7826 13.6083 34.5886 13.7403 34.3434C13.8722 34.0982 13.9382 33.8189 13.9382 33.5055C13.9382 33.192 13.8722 32.9127 13.7403 32.6676C13.6083 32.4202 13.4277 32.2262 13.1984 32.0855C12.9691 31.9448 12.7074 31.8744 12.4132 31.8744C12.119 31.8744 11.8573 31.9448 11.628 32.0855C11.3987 32.2262 11.2181 32.4202 11.0862 32.6676C10.9542 32.9127 10.8882 33.192 10.8882 33.5055Z" fill="white"/>
<path d="M17.3981 31.1069V33.7933C17.3981 34.1984 17.4976 34.5235 17.6966 34.7687C17.8956 35.0139 18.1595 35.1365 18.4883 35.1365C18.8171 35.1365 19.081 35.0139 19.28 34.7687C19.479 34.5235 19.5785 34.1984 19.5785 33.7933V31.1069H20.5714V33.7933C20.5714 34.2368 20.4849 34.6237 20.3118 34.9542C20.1388 35.2847 19.8965 35.5416 19.585 35.725C19.2735 35.9083 18.908 36 18.4883 36C18.0708 36 17.7053 35.9083 17.3916 35.725C17.0801 35.5416 16.8379 35.2847 16.6648 34.9542C16.4918 34.6237 16.4052 34.2368 16.4052 33.7933V31.1069H17.3981Z" fill="white"/>
<path d="M25.3551 35.9041H22.2921V31.1069H23.285V35.0406H25.3551V35.9041Z" fill="white"/>
<path d="M25.9337 31.1069H26.9883C27.1159 31.4139 27.2338 31.6932 27.3419 31.9448C27.4522 32.1942 27.5571 32.4362 27.6567 32.6708C27.7583 32.9053 27.8611 33.1494 27.9649 33.4031C28.0687 33.6547 28.1769 33.9361 28.2894 34.2474C28.3196 34.3327 28.3478 34.4148 28.3737 34.4937C28.3997 34.5704 28.4235 34.6461 28.4451 34.7208C28.4667 34.6461 28.4905 34.5704 28.5165 34.4937C28.5424 34.4148 28.5706 34.3327 28.6008 34.2474C28.7155 33.9361 28.8236 33.6547 28.9253 33.4031C29.0291 33.1494 29.1308 32.9053 29.2303 32.6708C29.332 32.4362 29.438 32.1942 29.5483 31.9448C29.6586 31.6932 29.7765 31.4139 29.902 31.1069H30.9565L28.9675 35.9041H27.9227L25.9337 31.1069Z" fill="white"/>
<path d="M33.8713 35.1365C34.0703 35.1365 34.2368 35.0821 34.3709 34.9734C34.5072 34.8647 34.5753 34.7303 34.5753 34.5704C34.5753 34.4425 34.531 34.3338 34.4423 34.2442C34.3558 34.1547 34.2411 34.0747 34.0984 34.0044C33.9556 33.9319 33.801 33.8615 33.6344 33.7933C33.47 33.7251 33.3045 33.6515 33.138 33.5726C32.9736 33.4916 32.8222 33.3967 32.6837 33.288C32.5453 33.1793 32.4339 33.0481 32.3495 32.8946C32.2652 32.7411 32.223 32.5567 32.223 32.3413C32.223 32.0748 32.2911 31.8424 32.4274 31.6442C32.5637 31.4437 32.7551 31.2881 33.0017 31.1772C33.2483 31.0664 33.5349 31.0109 33.8615 31.0109C34.3828 31.0109 34.8825 31.1389 35.3606 31.3947L34.9517 32.2134C34.7397 32.0812 34.5375 31.9917 34.345 31.9448C34.1525 31.8979 33.9924 31.8744 33.8648 31.8744C33.6723 31.8744 33.5176 31.9149 33.4008 31.9959C33.2861 32.0748 33.2288 32.1804 33.2288 32.3126C33.2288 32.4256 33.2699 32.5226 33.3521 32.6036C33.4343 32.6846 33.5425 32.7571 33.6766 32.8211C33.8129 32.885 33.961 32.9501 34.1211 33.0162C34.2877 33.0844 34.4564 33.159 34.6273 33.24C34.7981 33.321 34.9561 33.418 35.101 33.531C35.2459 33.644 35.3616 33.7805 35.4482 33.9404C35.5368 34.1003 35.5812 34.2933 35.5812 34.5193C35.5812 34.8071 35.5066 35.063 35.3573 35.2868C35.2081 35.5086 35.0026 35.6834 34.7408 35.8113C34.4791 35.9371 34.1784 36 33.8388 36C33.5252 36 33.2104 35.9456 32.8946 35.8369C32.5788 35.726 32.29 35.5704 32.0283 35.37L32.4955 34.5896C32.6167 34.6941 32.7562 34.7879 32.9141 34.8711C33.072 34.9542 33.2342 35.0192 33.4008 35.0662C33.5695 35.1131 33.7263 35.1365 33.8713 35.1365Z" fill="white"/>
<path d="M37.1754 31.1069H38.1618L40.6602 34.3306V31.1069H41.653V35.9041H40.6504L38.1488 32.674V35.9041H37.1754V31.1069Z" fill="white"/>
</svg>
